<svg xmlns="http://www.w3.org/2000/svg" width="225.188" height="214.754" viewBox="0 0 225.188 214.754"><g transform="translate(0.001 0.004)"><text transform="translate(19.41 202.75)" fill="#1d1d1b" font-size="53" font-family="TwCenMT-Regular, Tw Cen MT"><tspan x="0" y="0">A R R I </tspan></text><text transform="translate(178.816 202.75)" fill="#1d1d1b" font-size="53" font-family="TwCenMT-Regular, Tw Cen MT"><tspan x="0" y="0">S</tspan></text><path d="M13.509-34.129a14.2,14.2,0,0,1,5.509,1.174,11.392,11.392,0,0,1,4.657,3.584l.074.1L19.916-26.2l-.079-.082a14.537,14.537,0,0,0-2.6-2.22,6.339,6.339,0,0,0-3.329-.719,6.456,6.456,0,0,0-3.865,1.073,3.246,3.246,0,0,0-1.459,2.725,3.326,3.326,0,0,0,1.276,2.551,18.046,18.046,0,0,0,4.464,2.493,32.358,32.358,0,0,1,4.966,2.552A12.8,12.8,0,0,1,22.227-15.2a10.418,10.418,0,0,1,1.712,3.036A10.141,10.141,0,0,1,24.5-8.791a9.559,9.559,0,0,1-3.027,7.1,10.178,10.178,0,0,1-7.319,2.931A12.433,12.433,0,0,1,6.773-1.051,14.394,14.394,0,0,1,1.851-7.9L1.8-8.028,6.54-9.361l.043.1C8.193-5.62,10.688-3.773,14-3.773a5.781,5.781,0,0,0,4.006-1.439A4.689,4.689,0,0,0,19.6-8.835a4.925,4.925,0,0,0-.836-2.63,7.532,7.532,0,0,0-2.09-2.2,22.7,22.7,0,0,0-4.015-2,28.865,28.865,0,0,1-4.282-2.09,11.165,11.165,0,0,1-2.613-2.275,9.678,9.678,0,0,1-1.618-2.633,7.676,7.676,0,0,1-.515-2.812A7.9,7.9,0,0,1,6.517-31.6,10.283,10.283,0,0,1,13.509-34.129ZM23.4-29.315a11.141,11.141,0,0,0-4.481-3.411,13.953,13.953,0,0,0-5.412-1.155,10.041,10.041,0,0,0-6.828,2.465,7.664,7.664,0,0,0-2.8,5.945,7.429,7.429,0,0,0,.5,2.722,9.432,9.432,0,0,0,1.577,2.565A10.918,10.918,0,0,0,8.506-17.96a28.63,28.63,0,0,0,4.243,2.07,22.928,22.928,0,0,1,4.062,2.026A7.779,7.779,0,0,1,18.97-11.6a5.168,5.168,0,0,1,.874,2.762,4.928,4.928,0,0,1-1.671,3.807A6.022,6.022,0,0,1,14-3.525,7.386,7.386,0,0,1,9.508-4.94,10.211,10.211,0,0,1,6.4-9.064l-4.269,1.2a14.078,14.078,0,0,0,4.786,6.61A12.19,12.19,0,0,0,14.156.989,9.937,9.937,0,0,0,21.3-1.873a9.319,9.319,0,0,0,2.951-6.919,9.894,9.894,0,0,0-.548-3.295,10.171,10.171,0,0,0-1.672-2.963,12.557,12.557,0,0,0-2.878-2.573,32.121,32.121,0,0,0-4.927-2.531A18.265,18.265,0,0,1,9.7-22.687a3.563,3.563,0,0,1-1.362-2.738A3.482,3.482,0,0,1,9.9-28.35a6.7,6.7,0,0,1,4.011-1.12,6.571,6.571,0,0,1,3.461.757,14.543,14.543,0,0,1,2.565,2.176Z" transform="translate(178.816 202.75)"/><path d="M1.381,138.963,0,137.517,107.34,34.972V138.24h-2V39.648Z"/><path d="M223.773,138.247,90.36,4.824V138.24h-2V0L225.187,136.833Z"/></g></svg>